{
    "asset" : {
        "copyright" : "Copyright \u00a9 The Rollsmith",
        "generator" : "Khronos glTF Blender I/O v3.4.50",
        "version" : "2.0"
    },
    "scene" : 0,
    "scenes" : [
        {
            "extras" : {
                "pmc_sceneprops" : {}
            },
            "name" : "Scene",
            "nodes" : [
                0
            ]
        }
    ],
    "nodes" : [
        {
            "mesh" : 0,
            "name" : "d20",
            "rotation" : [
                0.70710688829422,
                0,
                -0.7071066498756409,
                5.338507946817117e-08
            ],
            "scale" : [
                9.999999747378752e-05,
                9.999999747378752e-05,
                9.999999747378752e-05
            ]
        }
    ],
    "materials" : [
        {
            "doubleSided" : true,
            "emissiveFactor" : [
                0.004005856107571343,
                0.0024300514203279278,
                0.24233950720193853
            ],
            "emissiveTexture" : {
                "index" : 0
            },
            "extras" : {
                "pmc_matprops" : {}
            },
            "name" : "MAT_7Dooms_d20",
            "normalTexture" : {
                "index" : 1
            },
            "pbrMetallicRoughness" : {
                "baseColorTexture" : {
                    "index" : 2
                },
                "metallicRoughnessTexture" : {
                    "index" : 3
                }
            }
        }
    ],
    "meshes" : [
        {
            "name" : "Mesh_0.014",
            "primitives" : [
                {
                    "attributes" : {
                        "POSITION" : 0,
                        "TEXCOORD_0" : 1,
                        "NORMAL" : 2
                    },
                    "indices" : 3,
                    "material" : 0
                }
            ]
        }
    ],
    "textures" : [
        {
            "sampler" : 0,
            "source" : 0
        },
        {
            "sampler" : 0,
            "source" : 1
        },
        {
            "sampler" : 0,
            "source" : 2
        },
        {
            "sampler" : 0,
            "source" : 3
        }
    ],
    "images" : [
        {
            "mimeType" : "image/webp",
            "name" : "MAT_7dooms_d20_Emissive",
            "uri" : "textures/MAT_7dooms_d20_Emissive.webp"
        },
        {
            "mimeType" : "image/webp",
            "name" : "MAT_7dooms_d20_Normal",
            "uri" : "textures/MAT_7dooms_d20_Normal.webp"
        },
        {
            "mimeType" : "image/webp",
            "name" : "MAT_7dooms_d20_BaseColor",
            "uri" : "textures/MAT_7dooms_d20_BaseColor.webp"
        },
        {
            "mimeType" : "image/webp",
            "name" : "MAT_7dooms_d20_Metallic-MAT_7dooms_d20_Roughness",
            "uri" : "textures/MAT_7dooms_d20_Metallic-MAT_7dooms_d20_Roughness.webp"
        }
    ],
    "accessors" : [
        {
            "bufferView" : 0,
            "componentType" : 5126,
            "count" : 492,
            "max" : [
                847899.875,
                847899.875,
                847899.875
            ],
            "min" : [
                -847899.875,
                -847899.875,
                -847899.875
            ],
            "type" : "VEC3"
        },
        {
            "bufferView" : 1,
            "componentType" : 5126,
            "count" : 492,
            "type" : "VEC2"
        },
        {
            "bufferView" : 2,
            "componentType" : 5126,
            "count" : 492,
            "type" : "VEC3"
        },
        {
            "bufferView" : 3,
            "componentType" : 5123,
            "count" : 2220,
            "type" : "SCALAR"
        }
    ],
    "bufferViews" : [
        {
            "buffer" : 0,
            "byteLength" : 5904,
            "byteOffset" : 0,
            "target" : 34962
        },
        {
            "buffer" : 0,
            "byteLength" : 3936,
            "byteOffset" : 5904,
            "target" : 34962
        },
        {
            "buffer" : 0,
            "byteLength" : 5904,
            "byteOffset" : 9840,
            "target" : 34962
        },
        {
            "buffer" : 0,
            "byteLength" : 4440,
            "byteOffset" : 15744,
            "target" : 34963
        }
    ],
    "samplers" : [
        {
            "magFilter" : 9729,
            "minFilter" : 9987
        }
    ],
    "buffers" : [
        {
            "byteLength" : 20184,
            "uri" : "d20.bin"
        }
    ]
}
