{
    "asset" : {
        "copyright" : "Copyright \u00a9 The Rollsmith",
        "generator" : "Khronos glTF Blender I/O v3.4.50",
        "version" : "2.0"
    },
    "scene" : 0,
    "scenes" : [
        {
            "extras" : {
                "pmc_sceneprops" : {}
            },
            "name" : "Scene",
            "nodes" : [
                0
            ]
        }
    ],
    "nodes" : [
        {
            "mesh" : 0,
            "name" : "d4",
            "rotation" : [
                0.70710688829422,
                0,
                -0.7071066498756409,
                5.338507946817117e-08
            ],
            "scale" : [
                9.999999747378752e-05,
                9.999999747378752e-05,
                9.999999747378752e-05
            ]
        }
    ],
    "materials" : [
        {
            "doubleSided" : true,
            "emissiveTexture" : {
                "index" : 0
            },
            "extras" : {
                "pmc_matprops" : {}
            },
            "name" : "MAT_7Dooms_d4",
            "normalTexture" : {
                "index" : 1
            },
            "pbrMetallicRoughness" : {
                "baseColorTexture" : {
                    "index" : 2
                },
                "metallicRoughnessTexture" : {
                    "index" : 3
                }
            }
        }
    ],
    "meshes" : [
        {
            "name" : "Mesh_0.009",
            "primitives" : [
                {
                    "attributes" : {
                        "POSITION" : 0,
                        "TEXCOORD_0" : 1,
                        "NORMAL" : 2
                    },
                    "indices" : 3,
                    "material" : 0
                }
            ]
        }
    ],
    "textures" : [
        {
            "sampler" : 0,
            "source" : 0
        },
        {
            "sampler" : 0,
            "source" : 1
        },
        {
            "sampler" : 0,
            "source" : 2
        },
        {
            "sampler" : 0,
            "source" : 3
        }
    ],
    "images" : [
        {
            "mimeType" : "image/webp",
            "name" : "MAT_7dooms_d4_Emissive",
            "uri" : "textures/MAT_7dooms_d4_Emissive.webp"
        },
        {
            "mimeType" : "image/webp",
            "name" : "MAT_7dooms_d4_Normal",
            "uri" : "textures/MAT_7dooms_d4_Normal.webp"
        },
        {
            "mimeType" : "image/webp",
            "name" : "MAT_7dooms_d4_BaseColor",
            "uri" : "textures/MAT_7dooms_d4_BaseColor.webp"
        },
        {
            "mimeType" : "image/webp",
            "name" : "MAT_7dooms_d4_Metallic-MAT_7dooms_d4_Roughness",
            "uri" : "textures/MAT_7dooms_d4_Metallic-MAT_7dooms_d4_Roughness.webp"
        }
    ],
    "accessors" : [
        {
            "bufferView" : 0,
            "componentType" : 5126,
            "count" : 103,
            "max" : [
                680373.25,
                680373.25,
                680373.25
            ],
            "min" : [
                -680373.25,
                -680373.25,
                -680373.25
            ],
            "type" : "VEC3"
        },
        {
            "bufferView" : 1,
            "componentType" : 5126,
            "count" : 103,
            "type" : "VEC2"
        },
        {
            "bufferView" : 2,
            "componentType" : 5126,
            "count" : 103,
            "type" : "VEC3"
        },
        {
            "bufferView" : 3,
            "componentType" : 5123,
            "count" : 444,
            "type" : "SCALAR"
        }
    ],
    "bufferViews" : [
        {
            "buffer" : 0,
            "byteLength" : 1236,
            "byteOffset" : 0,
            "target" : 34962
        },
        {
            "buffer" : 0,
            "byteLength" : 824,
            "byteOffset" : 1236,
            "target" : 34962
        },
        {
            "buffer" : 0,
            "byteLength" : 1236,
            "byteOffset" : 2060,
            "target" : 34962
        },
        {
            "buffer" : 0,
            "byteLength" : 888,
            "byteOffset" : 3296,
            "target" : 34963
        }
    ],
    "samplers" : [
        {
            "magFilter" : 9729,
            "minFilter" : 9987
        }
    ],
    "buffers" : [
        {
            "byteLength" : 4184,
            "uri" : "d4.bin"
        }
    ]
}
