{
    "asset" : {
        "copyright" : "Copyright \u00a9 The Rollsmith",
        "generator" : "Khronos glTF Blender I/O v3.4.50",
        "version" : "2.0"
    },
    "extensionsUsed" : [
        "KHR_materials_emissive_strength"
    ],
    "scene" : 0,
    "scenes" : [
        {
            "extras" : {
                "pmc_sceneprops" : {}
            },
            "name" : "Scene",
            "nodes" : [
                0
            ]
        }
    ],
    "nodes" : [
        {
            "mesh" : 0,
            "name" : "dice_12"
        }
    ],
    "materials" : [
        {
            "doubleSided" : true,
            "emissiveFactor" : [
                1,
                0.214795603305299,
                0.03292432911691635
            ],
            "emissiveTexture" : {
                "index" : 0
            },
            "extensions" : {
                "KHR_materials_emissive_strength" : {
                    "emissiveStrength" : 1.9334394335746765
                }
            },
            "extras" : {
                "pmc_matprops" : {}
            },
            "name" : "MAT_7Dooms_d12",
            "normalTexture" : {
                "index" : 1
            },
            "pbrMetallicRoughness" : {
                "baseColorTexture" : {
                    "index" : 2
                },
                "metallicRoughnessTexture" : {
                    "index" : 3
                }
            }
        }
    ],
    "meshes" : [
        {
            "name" : "Mesh_0.013",
            "primitives" : [
                {
                    "attributes" : {
                        "POSITION" : 0,
                        "TEXCOORD_0" : 1,
                        "NORMAL" : 2
                    },
                    "indices" : 3,
                    "material" : 0
                }
            ]
        }
    ],
    "textures" : [
        {
            "sampler" : 0,
            "source" : 0
        },
        {
            "sampler" : 0,
            "source" : 1
        },
        {
            "sampler" : 0,
            "source" : 2
        },
        {
            "sampler" : 0,
            "source" : 3
        }
    ],
    "images" : [
        {
            "mimeType" : "image/webp",
            "name" : "MAT_7dooms_d12_Emissive",
            "uri" : "textures/MAT_7dooms_d12_Emissive.webp"
        },
        {
            "mimeType" : "image/webp",
            "name" : "MAT_7dooms_d12_Normal.webp",
            "uri" : "textures/MAT_7dooms_d12_Normal_png.webp"
        },
        {
            "mimeType" : "image/webp",
            "name" : "MAT_7dooms_d12_BaseColor.webp",
            "uri" : "textures/MAT_7dooms_d12_BaseColor_png.webp"
        },
        {
            "mimeType" : "image/webp",
            "name" : "MAT_7dooms_d12_Metallic.png-MAT_7dooms_d12_Roughness.webp",
            "uri" : "textures/MAT_7dooms_d12_Metallic_png-MAT_7dooms_d12_Roughness_png.webp"
        }
    ],
    "accessors" : [
        {
            "bufferView" : 0,
            "componentType" : 5126,
            "count" : 525,
            "max" : [
                83.70027923583984,
                83.70027923583984,
                83.70027923583984
            ],
            "min" : [
                -83.70027923583984,
                -83.70027923583984,
                -83.70027923583984
            ],
            "type" : "VEC3"
        },
        {
            "bufferView" : 1,
            "componentType" : 5126,
            "count" : 525,
            "type" : "VEC2"
        },
        {
            "bufferView" : 2,
            "componentType" : 5126,
            "count" : 525,
            "type" : "VEC3"
        },
        {
            "bufferView" : 3,
            "componentType" : 5123,
            "count" : 2268,
            "type" : "SCALAR"
        }
    ],
    "bufferViews" : [
        {
            "buffer" : 0,
            "byteLength" : 6300,
            "byteOffset" : 0,
            "target" : 34962
        },
        {
            "buffer" : 0,
            "byteLength" : 4200,
            "byteOffset" : 6300,
            "target" : 34962
        },
        {
            "buffer" : 0,
            "byteLength" : 6300,
            "byteOffset" : 10500,
            "target" : 34962
        },
        {
            "buffer" : 0,
            "byteLength" : 4536,
            "byteOffset" : 16800,
            "target" : 34963
        }
    ],
    "samplers" : [
        {
            "magFilter" : 9729,
            "minFilter" : 9987
        }
    ],
    "buffers" : [
        {
            "byteLength" : 21336,
            "uri" : "dice_12.bin"
        }
    ]
}
